<svg version="1.2" baseProfile="tiny-ps" xmlns="http://www.w3.org/2000/svg" viewBox="0 0 1280 720" width="1280" height="720"><title>New Project</title><defs><linearGradient id="grd1" gradientUnits="userSpaceOnUse"  x1="-99" y1="-1.3" x2="126" y2="156.3"><stop offset="0" stop-color="#1620bb"  /><stop offset="1" stop-color="#6a20bd"  /></linearGradient><linearGradient id="grd2" gradientUnits="userSpaceOnUse"  x1="-99" y1="718.7" x2="126" y2="876.3"><stop offset="0" stop-color="#1620bb"  /><stop offset="1" stop-color="#6a20bd"  /></linearGradient><linearGradient id="grd3" gradientUnits="userSpaceOnUse"  x1="1181" y1="-1.3" x2="1406" y2="156.3"><stop offset="0" stop-color="#1620bb"  /><stop offset="1" stop-color="#6a20bd"  /></linearGradient><linearGradient id="grd4" gradientUnits="userSpaceOnUse"  x1="1181" y1="718.7" x2="1406" y2="876.3"><stop offset="0" stop-color="#1620bb"  /><stop offset="1" stop-color="#6a20bd"  /></linearGradient><linearGradient id="grd5" gradientUnits="userSpaceOnUse"  x1="125" y1="470.1" x2="326" y2="610.9"><stop offset="0" stop-color="#1620bb"  /><stop offset="1" stop-color="#6a20bd"  /></linearGradient><linearGradient id="grd6" gradientUnits="userSpaceOnUse"  x1="340" y1="218.6" x2="471" y2="310.4"><stop offset="0" stop-color="#1620bb"  /><stop offset="1" stop-color="#6a20bd"  /></linearGradient><linearGradient id="grd7" gradientUnits="userSpaceOnUse"  x1="780" y1="461.2" x2="955" y2="583.8"><stop offset="0" stop-color="#1620bb"  /><stop offset="1" stop-color="#6a20bd"  /></linearGradient><linearGradient id="grd8" gradientUnits="userSpaceOnUse"  x1="734" y1="62.5" x2="931" y2="200.5"><stop offset="0" stop-color="#1620bb"  /><stop offset="1" stop-color="#6a20bd"  /></linearGradient><linearGradient id="grd9" gradientUnits="userSpaceOnUse"  x1="1137" y1="303.8" x2="1236" y2="373.2"><stop offset="0" stop-color="#1620bb"  /><stop offset="1" stop-color="#6a20bd"  /></linearGradient></defs><style>tspan { white-space:pre }.s0 { fill: #212672 } .s1 { fill: url(#grd1) } .s2 { fill: url(#grd2) } .s3 { fill: url(#grd3) } .s4 { fill: url(#grd4) } .s5 { fill: url(#grd5) } .s6 { fill: url(#grd6) } .s7 { fill: url(#grd7) } .s8 { fill: url(#grd8) } .s9 { fill: url(#grd9) } </style><path class="s0" d="m0 0h1280v720h-1280v-720z" /><path class="s1" d="m13.5 190c-62.21 0-112.5-50.29-112.5-112.5c0-62.21 50.29-112.5 112.5-112.5c62.21 0 112.5 50.29 112.5 112.5c0 62.21-50.29 112.5-112.5 112.5z" /><path class="s2" d="m13.5 910c-62.21 0-112.5-50.29-112.5-112.5c0-62.21 50.29-112.5 112.5-112.5c62.21 0 112.5 50.29 112.5 112.5c0 62.21-50.29 112.5-112.5 112.5z" /><path class="s3" d="m1293.5 190c-62.21 0-112.5-50.29-112.5-112.5c0-62.21 50.29-112.5 112.5-112.5c62.21 0 112.5 50.29 112.5 112.5c0 62.21-50.29 112.5-112.5 112.5z" /><path class="s4" d="m1293.5 910c-62.21 0-112.5-50.29-112.5-112.5c0-62.21 50.29-112.5 112.5-112.5c62.21 0 112.5 50.29 112.5 112.5c0 62.21-50.29 112.5-112.5 112.5z" /><path class="s5" d="m225.5 641c-55.58 0-100.5-44.92-100.5-100.5c0-55.58 44.92-100.5 100.5-100.5c55.58 0 100.5 44.92 100.5 100.5c0 55.58-44.92 100.5-100.5 100.5z" /><path class="s6" d="m405.5 330c-36.22 0-65.5-29.28-65.5-65.5c0-36.22 29.28-65.5 65.5-65.5c36.22 0 65.5 29.28 65.5 65.5c0 36.22-29.28 65.5-65.5 65.5z" /><path class="s7" d="m867.5 610c-48.39 0-87.5-39.11-87.5-87.5c0-48.39 39.11-87.5 87.5-87.5c48.39 0 87.5 39.11 87.5 87.5c0 48.39-39.11 87.5-87.5 87.5z" /><path class="s8" d="m832.5 230c-54.47 0-98.5-44.03-98.5-98.5c0-54.47 44.03-98.5 98.5-98.5c54.47 0 98.5 44.03 98.5 98.5c0 54.47-44.03 98.5-98.5 98.5z" /><path class="s9" d="m1186.5 388c-27.37 0-49.5-22.13-49.5-49.5c0-27.37 22.13-49.5 49.5-49.5c27.37 0 49.5 22.13 49.5 49.5c0 27.37-22.13 49.5-49.5 49.5z" /></svg>